<svg xmlns="http://www.w3.org/2000/svg" version="1.1" xmlns:xlink="http://www.w3.org/1999/xlink" width="512" height="512" x="0" y="0" viewBox="0 0 1000 1000" style="enable-background:new 0 0 512 512" xml:space="preserve" class=""><g><path d="M925 307.36h-73.8a13 13 0 0 1-13-13V161.8H705.64a13 13 0 0 1-13-13V75a13 13 0 0 1 13-13H925a13 13 0 0 1 13 13v219.36a13 13 0 0 1-13 13Zm-60.8-26H912V88H718.64v47.8H851.2a13 13 0 0 1 13 13ZM294.36 938H75a13 13 0 0 1-13-13V705.64a13 13 0 0 1 13-13h73.8a13 13 0 0 1 13 13V838.2h132.56a13 13 0 0 1 13 13V925a13 13 0 0 1-13 13ZM88 912h193.36v-47.8H148.8a13 13 0 0 1-13-13V718.64H88ZM148.8 307.38H75a13 13 0 0 1-13-13V75a13 13 0 0 1 13-13h219.38a13 13 0 0 1 13 13v73.8a13 13 0 0 1-13 13H161.8v132.58a13 13 0 0 1-13 13Zm-60.8-26h47.8V148.8a13 13 0 0 1 13-13h132.58V88H88ZM925 938H705.65a13 13 0 0 1-13-13v-73.8a13 13 0 0 1 13-13H838.2V705.65a13 13 0 0 1 13-13H925a13 13 0 0 1 13 13V925a13 13 0 0 1-13 13Zm-206.35-26H912V718.65h-47.8V851.2a13 13 0 0 1-13 13H718.65ZM500 345.29a13 13 0 0 1-13-13v-181.2a13 13 0 0 1 26 0v181.2a13 13 0 0 1-13 13ZM500 861.91a13 13 0 0 1-13-13v-181.2a13 13 0 0 1 26 0v181.2a13 13 0 0 1-13 13ZM848.91 513h-181.2a13 13 0 0 1 0-26h181.2a13 13 0 0 1 0 26ZM332.29 513h-181.2a13 13 0 0 1 0-26h181.2a13 13 0 0 1 0 26ZM500 572a72 72 0 1 1 72-72 72.06 72.06 0 0 1-72 72Zm0-118a46 46 0 1 0 46 46 46 46 0 0 0-46-46Z" fill="#ffffff" opacity="1" data-original="#000000"></path></g></svg>